<svg width="104" height="128" viewBox="0 0 104 128" fill="none" xmlns="http://www.w3.org/2000/svg">
<path d="M83.3494 44.1983C76.8294 40.3006 69.0305 39.1566 61.6684 41.018C54.3063 42.8794 47.984 47.5935 44.0923 54.1236C40.2006 60.6537 39.0584 68.4647 40.9169 75.8382C42.7754 83.2118 47.4823 89.5438 54.0022 93.4415L68.6758 68.8199L83.3494 44.1983Z" fill="#E8C2CA"/>
<path d="M45.7714 106.893C40.7395 103.913 36.3461 99.9661 32.8442 95.2785C29.3424 90.5909 26.8014 85.2555 25.3677 79.5799C23.9339 73.9043 23.6359 68.0006 24.4905 62.209C25.3454 56.4175 27.336 50.8525 30.3477 45.8351C33.3595 40.8176 37.3329 36.4465 42.039 32.9741C46.7452 29.5015 52.0908 26.996 57.7682 25.6021C63.4454 24.2081 69.342 23.9531 75.1181 24.8519C80.8943 25.7508 86.4357 27.7856 91.423 30.8391L83.6971 43.4973C80.3773 41.4647 76.6888 40.1104 72.8439 39.512C68.9992 38.9138 65.0742 39.0834 61.2952 40.0114C57.5162 40.9392 53.9579 42.6069 50.8253 44.9184C47.6927 47.2298 45.0479 50.1394 43.0431 53.4792C41.0383 56.8191 39.7132 60.5233 39.1444 64.3784C38.5754 68.2335 38.7738 72.1631 39.7281 75.9411C40.6824 79.719 42.3738 83.2704 44.7049 86.3907C47.0358 89.511 49.9603 92.1383 53.3097 94.1215L45.7714 106.893Z" fill="#D1B3C4"/>
<path d="M33.5727 127.912C17.9612 118.574 6.68618 103.415 2.22212 85.7601C-2.24195 68.1055 0.469585 49.3982 9.76164 33.7436C19.0537 18.0892 34.1672 6.76621 51.7854 2.25971C69.4036 -2.24678 88.0873 0.431302 103.736 9.70627L92.0459 29.4917C81.6294 23.3179 69.1928 21.5352 57.4655 24.5349C45.7381 27.5346 35.678 35.0717 29.4928 45.4919C23.3077 55.9122 21.5028 68.3645 24.4742 80.1161C27.4457 91.8677 34.9507 101.958 45.3423 108.174L33.5727 127.912Z" fill="#B392AC"/>
</svg>
